<svg id="visual" viewBox="0 0 900 600" width="900" height="600" xmlns="http://www.w3.org/2000/svg" xmlns:xlink="http://www.w3.org/1999/xlink" version="1.1"><g><g transform="translate(803 304)"><path d="M91.1 -26C104.2 10.8 91.4 59.5 57.6 85.7C23.7 111.8 -31.3 115.3 -65.8 90.3C-100.3 65.3 -114.3 11.8 -99.9 -26.8C-85.6 -65.3 -42.8 -88.9 -1.9 -88.3C39 -87.7 78 -62.8 91.1 -26Z" stroke="#A855f7" fill="none" stroke-width="20"></path></g><g transform="translate(311 93)"><path d="M64.7 -18.7C73.7 6.7 63.9 40.5 41.1 57.2C18.3 74 -17.5 73.6 -39.2 57.1C-60.9 40.5 -68.7 7.9 -59.8 -17.4C-50.9 -42.6 -25.5 -60.4 1.2 -60.8C27.8 -61.2 55.7 -44.2 64.7 -18.7Z" stroke="#A855f7" fill="none" stroke-width="20"></path></g><g transform="translate(319 511)"><path d="M65.4 -21.4C73.4 3.3 60.6 34.5 38.6 49.7C16.6 64.9 -14.7 64.1 -34.7 49.1C-54.8 34.2 -63.8 5.3 -56.1 -19C-48.5 -43.2 -24.2 -62.9 2.2 -63.6C28.7 -64.3 57.4 -46.2 65.4 -21.4Z" stroke="#A855f7" fill="none" stroke-width="20"></path></g><g transform="translate(624 64)"><path d="M78.9 -25.9C88.9 5.2 74.5 43.9 47.2 63.4C19.9 82.8 -20.2 82.9 -47.4 63.6C-74.6 44.2 -88.8 5.4 -78.7 -25.7C-68.7 -56.9 -34.3 -80.3 0.1 -80.3C34.5 -80.3 68.9 -56.9 78.9 -25.9Z" stroke="#A855f7" fill="none" stroke-width="20"></path></g><g transform="translate(13 549)"><path d="M83.4 -30.4C93.3 3.2 76.2 42.3 48.4 61.2C20.6 80.2 -18 79 -42.7 60.6C-67.4 42.2 -78.2 6.6 -68.8 -26.4C-59.4 -59.4 -29.7 -89.8 3.5 -91C36.8 -92.1 73.6 -64 83.4 -30.4Z" stroke="#A855f7" fill="none" stroke-width="20"></path></g></g></svg>